<svg xmlns="http://www.w3.org/2000/svg" viewBox="0 0 996 1087" width="996" height="1087" role="img" aria-labelledby="title desc">
<title id="title">DBS relational map — Classification and lookup</title>
<desc id="desc">DBS tables with exact foreign-key column connections, generated directly by the Go schema tool.</desc>
<defs><marker id="fk-arrow" markerWidth="8" markerHeight="8" refX="7" refY="4" orient="auto"><path d="M0,0 L8,4 L0,8 z" fill="#245FA9"/></marker></defs>
<rect width="100%" height="100%" fill="#f8fafc"/>
<text x="32" y="38" font-family="system-ui, sans-serif" font-size="22" font-weight="700" fill="#172b4d">Classification and lookup</text>
<text x="32" y="62" font-family="system-ui, sans-serif" font-size="12" fill="#52657a">Dataset identity, eras, tiers, types, physics groups, and branch hashes.</text>
<text x="32" y="78" font-family="system-ui, sans-serif" font-size="11" fill="#52657a">Exact arrows run from FK source columns to referenced PK/UQ columns.</text>
<rect x="32" y="92" width="12" height="12" rx="2" fill="#E6F5ED" stroke="#17734D"/><text x="50" y="103" font-family="system-ui, sans-serif" font-size="10" fill="#334155">Core</text>
<rect x="142" y="92" width="12" height="12" rx="2" fill="#E9F2FC" stroke="#245FA9"/><text x="160" y="103" font-family="system-ui, sans-serif" font-size="10" fill="#334155">Lookup</text>
<rect x="252" y="92" width="12" height="12" rx="2" fill="#F3EAFF" stroke="#7047AA"/><text x="270" y="103" font-family="system-ui, sans-serif" font-size="10" fill="#334155">Parentage</text>
<rect x="362" y="92" width="12" height="12" rx="2" fill="#FFF0DF" stroke="#AC5516"/><text x="380" y="103" font-family="system-ui, sans-serif" font-size="10" fill="#334155">Config</text>
<rect x="472" y="92" width="12" height="12" rx="2" fill="#E8F4F5" stroke="#147887"/><text x="490" y="103" font-family="system-ui, sans-serif" font-size="10" fill="#334155">Operations</text>
<rect x="582" y="92" width="12" height="12" rx="2" fill="#F1F3F5" stroke="#596675"/><text x="600" y="103" font-family="system-ui, sans-serif" font-size="10" fill="#334155">Other</text>
<text x="32" y="124" font-family="ui-monospace, monospace" font-size="10" fill="#52657a">PK primary key · FK foreign key · UQ unique · NN not null · +N folded columns are in the dictionary</text>
<path d="M 292.0 337.5 H 488.0 V 199.5 H 704.0" fill="none" stroke="#245FA9" stroke-width="1.6" opacity="0.82" marker-end="url(#fk-arrow)"/>
<rect x="464.0" y="327.5" width="68" height="20" rx="3" fill="#ffffff" opacity="0.94"/>
<text x="498.0" y="335.0" text-anchor="middle" font-family="ui-monospace, monospace" font-size="7.5" font-weight="700" fill="#245FA9"><tspan x="498.0">AQE_DS</tspan><tspan x="498.0" dy="7.5" font-size="7" font-weight="500">SET NULL</tspan></text>
<path d="M 292.0 314.5 H 488.0 V 388.5 H 704.0" fill="none" stroke="#245FA9" stroke-width="1.6" opacity="0.82" marker-end="url(#fk-arrow)"/>
<rect x="464.0" y="304.5" width="68" height="20" rx="3" fill="#ffffff" opacity="0.94"/>
<text x="498.0" y="312.0" text-anchor="middle" font-family="ui-monospace, monospace" font-size="7.5" font-weight="700" fill="#245FA9"><tspan x="498.0">DTP_DS</tspan><tspan x="498.0" dy="7.5" font-size="7" font-weight="500">NO ACTION</tspan></text>
<path d="M 292.0 291.5 H 488.0 V 494.5 H 704.0" fill="none" stroke="#245FA9" stroke-width="1.6" opacity="0.82" marker-end="url(#fk-arrow)"/>
<rect x="464.0" y="281.5" width="68" height="20" rx="3" fill="#ffffff" opacity="0.94"/>
<text x="498.0" y="289.0" text-anchor="middle" font-family="ui-monospace, monospace" font-size="7.5" font-weight="700" fill="#245FA9"><tspan x="498.0">DT_DS</tspan><tspan x="498.0" dy="7.5" font-size="7" font-weight="500">CASCADE</tspan></text>
<path d="M 292.0 245.5 H 320.0 V 351.5 H 368.0" fill="none" stroke="#245FA9" stroke-width="1.6" opacity="0.82" marker-end="url(#fk-arrow)"/>
<rect x="296.0" y="235.5" width="68" height="20" rx="3" fill="#ffffff" opacity="0.94"/>
<text x="330.0" y="243.0" text-anchor="middle" font-family="ui-monospace, monospace" font-size="7.5" font-weight="700" fill="#245FA9"><tspan x="330.0">PDS_DS</tspan><tspan x="330.0" dy="7.5" font-size="7" font-weight="500">CASCADE</tspan></text>
<path d="M 292.0 360.5 H 488.0 V 1024.5 H 704.0" fill="none" stroke="#245FA9" stroke-width="1.6" opacity="0.82" marker-end="url(#fk-arrow)"/>
<rect x="464.0" y="350.5" width="68" height="20" rx="3" fill="#ffffff" opacity="0.94"/>
<text x="498.0" y="358.0" text-anchor="middle" font-family="ui-monospace, monospace" font-size="7.5" font-weight="700" fill="#245FA9"><tspan x="498.0">PE_DS</tspan><tspan x="498.0" dy="7.5" font-size="7" font-weight="500">SET NULL</tspan></text>
<path d="M 292.0 383.5 H 488.0 V 706.5 H 704.0" fill="none" stroke="#245FA9" stroke-width="1.6" opacity="0.82" marker-end="url(#fk-arrow)"/>
<rect x="464.0" y="373.5" width="68" height="20" rx="3" fill="#ffffff" opacity="0.94"/>
<text x="498.0" y="381.0" text-anchor="middle" font-family="ui-monospace, monospace" font-size="7.5" font-weight="700" fill="#245FA9"><tspan x="498.0">PG_DS</tspan><tspan x="498.0" dy="7.5" font-size="7" font-weight="500">SET NULL</tspan></text>
<path d="M 292.0 268.5 H 488.0 V 918.5 H 704.0" fill="none" stroke="#245FA9" stroke-width="1.6" opacity="0.82" marker-end="url(#fk-arrow)"/>
<rect x="464.0" y="258.5" width="68" height="20" rx="3" fill="#ffffff" opacity="0.94"/>
<text x="498.0" y="266.0" text-anchor="middle" font-family="ui-monospace, monospace" font-size="7.5" font-weight="700" fill="#245FA9"><tspan x="498.0">PSDS_DS</tspan><tspan x="498.0" dy="7.5" font-size="7" font-weight="500">CASCADE</tspan></text>
<path d="M 628.0 268.5 H 656.0 V 305.5 H 704.0" fill="none" stroke="#245FA9" stroke-width="1.6" opacity="0.82" marker-end="url(#fk-arrow)"/>
<rect x="632.0" y="258.5" width="68" height="20" rx="3" fill="#ffffff" opacity="0.94"/>
<text x="666.0" y="266.0" text-anchor="middle" font-family="ui-monospace, monospace" font-size="7.5" font-weight="700" fill="#245FA9"><tspan x="666.0">BH_FL</tspan><tspan x="666.0" dy="7.5" font-size="7" font-weight="500">SET NULL</tspan></text>
<path d="M 628.0 245.5 H 656.0 V 600.5 H 704.0" fill="none" stroke="#245FA9" stroke-width="1.6" opacity="0.82" marker-end="url(#fk-arrow)"/>
<rect x="632.0" y="235.5" width="68" height="20" rx="3" fill="#ffffff" opacity="0.94"/>
<text x="666.0" y="243.0" text-anchor="middle" font-family="ui-monospace, monospace" font-size="7.5" font-weight="700" fill="#245FA9"><tspan x="666.0">FT_FL</tspan><tspan x="666.0" dy="7.5" font-size="7" font-weight="500">NO ACTION</tspan></text>
<path d="M 628.0 397.5 H 656.0 V 812.5 H 704.0" fill="none" stroke="#245FA9" stroke-width="1.6" opacity="0.82" marker-end="url(#fk-arrow)"/>
<rect x="632.0" y="387.5" width="68" height="20" rx="3" fill="#ffffff" opacity="0.94"/>
<text x="666.0" y="395.0" text-anchor="middle" font-family="ui-monospace, monospace" font-size="7.5" font-weight="700" fill="#245FA9"><tspan x="666.0">PDT_PDS</tspan><tspan x="666.0" dy="7.5" font-size="7" font-weight="500">NO ACTION</tspan></text>
<g id="table-ACQUISITION_ERAS">
<rect x="704.0" y="142.0" width="260.0" height="92.0" rx="7" fill="#ffffff" stroke="#245FA9" stroke-width="1.4"/>
<path d="M 704.0 149.0 h 260.0 v 39.0 h -260.0 z" fill="#E9F2FC"/>
<text x="714.0" y="161.0" font-family="ui-monospace, monospace" font-size="13" font-weight="700" fill="#245FA9">ACQUISITION_ERAS</text>
<text x="714.0" y="178.0" font-family="system-ui, sans-serif" font-size="9.5" fill="#53657a">PK PK_AQE · +5 folded</text>
<rect x="704.0" y="188.0" width="260.0" height="23.0" fill="#ffffff" stroke="#e5eaf0" stroke-width="0.6"/>
<text x="710.0" y="203.0" font-family="ui-monospace, monospace" font-size="7.5" font-weight="700" fill="#64748b">PK NN</text>
<text x="762.0" y="203.0" font-family="ui-monospace, monospace" font-size="9.0" font-weight="600" fill="#172b4d">ACQUISITION_ERA_ID</text>
<text x="958.0" y="203.0" text-anchor="end" font-family="ui-monospace, monospace" font-size="7.5" fill="#52657a">INTEGER</text>
<circle cx="704.0" cy="199.5" r="2.5" fill="#245FA9"/><circle cx="964.0" cy="199.5" r="2.5" fill="#245FA9"/>
<rect x="704.0" y="211.0" width="260.0" height="23.0" fill="#f8fafc" stroke="#e5eaf0" stroke-width="0.6"/>
<text x="710.0" y="226.0" font-family="ui-monospace, monospace" font-size="7.5" font-weight="700" fill="#64748b">UQ NN</text>
<text x="762.0" y="226.0" font-family="ui-monospace, monospace" font-size="9.0" font-weight="600" fill="#172b4d">ACQUISITION_ERA_NAME</text>
<text x="958.0" y="226.0" text-anchor="end" font-family="ui-monospace, monospace" font-size="7.5" fill="#52657a">VARCHAR2(120)</text>
<circle cx="704.0" cy="222.5" r="2.5" fill="#245FA9"/><circle cx="964.0" cy="222.5" r="2.5" fill="#245FA9"/>
</g>
<g id="table-BRANCH_HASHES">
<rect x="704.0" y="248.0" width="260.0" height="69.0" rx="7" fill="#ffffff" stroke="#245FA9" stroke-width="1.4"/>
<path d="M 704.0 255.0 h 260.0 v 39.0 h -260.0 z" fill="#E9F2FC"/>
<text x="714.0" y="267.0" font-family="ui-monospace, monospace" font-size="13" font-weight="700" fill="#245FA9">BRANCH_HASHES</text>
<text x="714.0" y="284.0" font-family="system-ui, sans-serif" font-size="9.5" fill="#53657a">PK PK_BH · +2 folded</text>
<rect x="704.0" y="294.0" width="260.0" height="23.0" fill="#ffffff" stroke="#e5eaf0" stroke-width="0.6"/>
<text x="710.0" y="309.0" font-family="ui-monospace, monospace" font-size="7.5" font-weight="700" fill="#64748b">PK NN</text>
<text x="762.0" y="309.0" font-family="ui-monospace, monospace" font-size="9.0" font-weight="600" fill="#172b4d">BRANCH_HASH_ID</text>
<text x="958.0" y="309.0" text-anchor="end" font-family="ui-monospace, monospace" font-size="7.5" fill="#52657a">INTEGER</text>
<circle cx="704.0" cy="305.5" r="2.5" fill="#245FA9"/><circle cx="964.0" cy="305.5" r="2.5" fill="#245FA9"/>
</g>
<g id="table-DATASETS">
<rect x="32.0" y="142.0" width="260.0" height="253.0" rx="7" fill="#ffffff" stroke="#17734D" stroke-width="1.4"/>
<path d="M 32.0 149.0 h 260.0 v 39.0 h -260.0 z" fill="#E6F5ED"/>
<text x="42.0" y="161.0" font-family="ui-monospace, monospace" font-size="13" font-weight="700" fill="#17734D">DATASETS</text>
<text x="42.0" y="178.0" font-family="system-ui, sans-serif" font-size="9.5" fill="#53657a">PK PK_DS · +7 folded</text>
<rect x="32.0" y="188.0" width="260.0" height="23.0" fill="#ffffff" stroke="#e5eaf0" stroke-width="0.6"/>
<text x="38.0" y="203.0" font-family="ui-monospace, monospace" font-size="7.5" font-weight="700" fill="#64748b">PK NN</text>
<text x="90.0" y="203.0" font-family="ui-monospace, monospace" font-size="9.0" font-weight="600" fill="#172b4d">DATASET_ID</text>
<text x="286.0" y="203.0" text-anchor="end" font-family="ui-monospace, monospace" font-size="7.5" fill="#52657a">INTEGER</text>
<circle cx="32.0" cy="199.5" r="2.5" fill="#17734D"/><circle cx="292.0" cy="199.5" r="2.5" fill="#17734D"/>
<rect x="32.0" y="211.0" width="260.0" height="23.0" fill="#f8fafc" stroke="#e5eaf0" stroke-width="0.6"/>
<text x="38.0" y="226.0" font-family="ui-monospace, monospace" font-size="7.5" font-weight="700" fill="#64748b">UQ NN</text>
<text x="90.0" y="226.0" font-family="ui-monospace, monospace" font-size="9.0" font-weight="600" fill="#172b4d">DATASET</text>
<text x="286.0" y="226.0" text-anchor="end" font-family="ui-monospace, monospace" font-size="7.5" fill="#52657a">VARCHAR2(700)</text>
<circle cx="32.0" cy="222.5" r="2.5" fill="#17734D"/><circle cx="292.0" cy="222.5" r="2.5" fill="#17734D"/>
<rect x="32.0" y="234.0" width="260.0" height="23.0" fill="#ffffff" stroke="#e5eaf0" stroke-width="0.6"/>
<text x="38.0" y="249.0" font-family="ui-monospace, monospace" font-size="7.5" font-weight="700" fill="#64748b">FK NN</text>
<text x="90.0" y="249.0" font-family="ui-monospace, monospace" font-size="9.0" font-weight="600" fill="#172b4d">PRIMARY_DS_ID</text>
<text x="286.0" y="249.0" text-anchor="end" font-family="ui-monospace, monospace" font-size="7.5" fill="#52657a">INTEGER</text>
<circle cx="32.0" cy="245.5" r="2.5" fill="#17734D"/><circle cx="292.0" cy="245.5" r="2.5" fill="#17734D"/>
<rect x="32.0" y="257.0" width="260.0" height="23.0" fill="#f8fafc" stroke="#e5eaf0" stroke-width="0.6"/>
<text x="38.0" y="272.0" font-family="ui-monospace, monospace" font-size="7.5" font-weight="700" fill="#64748b">FK NN</text>
<text x="90.0" y="272.0" font-family="ui-monospace, monospace" font-size="9.0" font-weight="600" fill="#172b4d">PROCESSED_DS_ID</text>
<text x="286.0" y="272.0" text-anchor="end" font-family="ui-monospace, monospace" font-size="7.5" fill="#52657a">INTEGER</text>
<circle cx="32.0" cy="268.5" r="2.5" fill="#17734D"/><circle cx="292.0" cy="268.5" r="2.5" fill="#17734D"/>
<rect x="32.0" y="280.0" width="260.0" height="23.0" fill="#ffffff" stroke="#e5eaf0" stroke-width="0.6"/>
<text x="38.0" y="295.0" font-family="ui-monospace, monospace" font-size="7.5" font-weight="700" fill="#64748b">FK NN</text>
<text x="90.0" y="295.0" font-family="ui-monospace, monospace" font-size="9.0" font-weight="600" fill="#172b4d">DATA_TIER_ID</text>
<text x="286.0" y="295.0" text-anchor="end" font-family="ui-monospace, monospace" font-size="7.5" fill="#52657a">INTEGER</text>
<circle cx="32.0" cy="291.5" r="2.5" fill="#17734D"/><circle cx="292.0" cy="291.5" r="2.5" fill="#17734D"/>
<rect x="32.0" y="303.0" width="260.0" height="23.0" fill="#f8fafc" stroke="#e5eaf0" stroke-width="0.6"/>
<text x="38.0" y="318.0" font-family="ui-monospace, monospace" font-size="7.5" font-weight="700" fill="#64748b">FK NN</text>
<text x="90.0" y="318.0" font-family="ui-monospace, monospace" font-size="9.0" font-weight="600" fill="#172b4d">DATASET_ACCESS_TYPE_ID</text>
<text x="286.0" y="318.0" text-anchor="end" font-family="ui-monospace, monospace" font-size="7.5" fill="#52657a">INTEGER</text>
<circle cx="32.0" cy="314.5" r="2.5" fill="#17734D"/><circle cx="292.0" cy="314.5" r="2.5" fill="#17734D"/>
<rect x="32.0" y="326.0" width="260.0" height="23.0" fill="#ffffff" stroke="#e5eaf0" stroke-width="0.6"/>
<text x="38.0" y="341.0" font-family="ui-monospace, monospace" font-size="7.5" font-weight="700" fill="#64748b">FK</text>
<text x="90.0" y="341.0" font-family="ui-monospace, monospace" font-size="9.0" font-weight="600" fill="#172b4d">ACQUISITION_ERA_ID</text>
<text x="286.0" y="341.0" text-anchor="end" font-family="ui-monospace, monospace" font-size="7.5" fill="#52657a">INTEGER</text>
<circle cx="32.0" cy="337.5" r="2.5" fill="#17734D"/><circle cx="292.0" cy="337.5" r="2.5" fill="#17734D"/>
<rect x="32.0" y="349.0" width="260.0" height="23.0" fill="#f8fafc" stroke="#e5eaf0" stroke-width="0.6"/>
<text x="38.0" y="364.0" font-family="ui-monospace, monospace" font-size="7.5" font-weight="700" fill="#64748b">FK</text>
<text x="90.0" y="364.0" font-family="ui-monospace, monospace" font-size="9.0" font-weight="600" fill="#172b4d">PROCESSING_ERA_ID</text>
<text x="286.0" y="364.0" text-anchor="end" font-family="ui-monospace, monospace" font-size="7.5" fill="#52657a">INTEGER</text>
<circle cx="32.0" cy="360.5" r="2.5" fill="#17734D"/><circle cx="292.0" cy="360.5" r="2.5" fill="#17734D"/>
<rect x="32.0" y="372.0" width="260.0" height="23.0" fill="#ffffff" stroke="#e5eaf0" stroke-width="0.6"/>
<text x="38.0" y="387.0" font-family="ui-monospace, monospace" font-size="7.5" font-weight="700" fill="#64748b">FK</text>
<text x="90.0" y="387.0" font-family="ui-monospace, monospace" font-size="9.0" font-weight="600" fill="#172b4d">PHYSICS_GROUP_ID</text>
<text x="286.0" y="387.0" text-anchor="end" font-family="ui-monospace, monospace" font-size="7.5" fill="#52657a">INTEGER</text>
<circle cx="32.0" cy="383.5" r="2.5" fill="#17734D"/><circle cx="292.0" cy="383.5" r="2.5" fill="#17734D"/>
</g>
<g id="table-DATASET_ACCESS_TYPES">
<rect x="704.0" y="331.0" width="260.0" height="92.0" rx="7" fill="#ffffff" stroke="#245FA9" stroke-width="1.4"/>
<path d="M 704.0 338.0 h 260.0 v 39.0 h -260.0 z" fill="#E9F2FC"/>
<text x="714.0" y="350.0" font-family="ui-monospace, monospace" font-size="13" font-weight="700" fill="#245FA9">DATASET_ACCESS_TYPES</text>
<text x="714.0" y="367.0" font-family="system-ui, sans-serif" font-size="9.5" fill="#53657a">PK PK_DTP</text>
<rect x="704.0" y="377.0" width="260.0" height="23.0" fill="#ffffff" stroke="#e5eaf0" stroke-width="0.6"/>
<text x="710.0" y="392.0" font-family="ui-monospace, monospace" font-size="7.5" font-weight="700" fill="#64748b">PK NN</text>
<text x="762.0" y="392.0" font-family="ui-monospace, monospace" font-size="9.0" font-weight="600" fill="#172b4d">DATASET_ACCESS_TYPE_ID</text>
<text x="958.0" y="392.0" text-anchor="end" font-family="ui-monospace, monospace" font-size="7.5" fill="#52657a">INTEGER</text>
<circle cx="704.0" cy="388.5" r="2.5" fill="#245FA9"/><circle cx="964.0" cy="388.5" r="2.5" fill="#245FA9"/>
<rect x="704.0" y="400.0" width="260.0" height="23.0" fill="#f8fafc" stroke="#e5eaf0" stroke-width="0.6"/>
<text x="710.0" y="415.0" font-family="ui-monospace, monospace" font-size="7.5" font-weight="700" fill="#64748b">UQ NN</text>
<text x="762.0" y="415.0" font-family="ui-monospace, monospace" font-size="9.0" font-weight="600" fill="#172b4d">DATASET_ACCESS_TYPE</text>
<text x="958.0" y="415.0" text-anchor="end" font-family="ui-monospace, monospace" font-size="7.5" fill="#52657a">VARCHAR2(100)</text>
<circle cx="704.0" cy="411.5" r="2.5" fill="#245FA9"/><circle cx="964.0" cy="411.5" r="2.5" fill="#245FA9"/>
</g>
<g id="table-DATA_TIERS">
<rect x="704.0" y="437.0" width="260.0" height="92.0" rx="7" fill="#ffffff" stroke="#245FA9" stroke-width="1.4"/>
<path d="M 704.0 444.0 h 260.0 v 39.0 h -260.0 z" fill="#E9F2FC"/>
<text x="714.0" y="456.0" font-family="ui-monospace, monospace" font-size="13" font-weight="700" fill="#245FA9">DATA_TIERS</text>
<text x="714.0" y="473.0" font-family="system-ui, sans-serif" font-size="9.5" fill="#53657a">PK PK_DT · +2 folded</text>
<rect x="704.0" y="483.0" width="260.0" height="23.0" fill="#ffffff" stroke="#e5eaf0" stroke-width="0.6"/>
<text x="710.0" y="498.0" font-family="ui-monospace, monospace" font-size="7.5" font-weight="700" fill="#64748b">PK NN</text>
<text x="762.0" y="498.0" font-family="ui-monospace, monospace" font-size="9.0" font-weight="600" fill="#172b4d">DATA_TIER_ID</text>
<text x="958.0" y="498.0" text-anchor="end" font-family="ui-monospace, monospace" font-size="7.5" fill="#52657a">INTEGER</text>
<circle cx="704.0" cy="494.5" r="2.5" fill="#245FA9"/><circle cx="964.0" cy="494.5" r="2.5" fill="#245FA9"/>
<rect x="704.0" y="506.0" width="260.0" height="23.0" fill="#f8fafc" stroke="#e5eaf0" stroke-width="0.6"/>
<text x="710.0" y="521.0" font-family="ui-monospace, monospace" font-size="7.5" font-weight="700" fill="#64748b">UQ NN</text>
<text x="762.0" y="521.0" font-family="ui-monospace, monospace" font-size="9.0" font-weight="600" fill="#172b4d">DATA_TIER_NAME</text>
<text x="958.0" y="521.0" text-anchor="end" font-family="ui-monospace, monospace" font-size="7.5" fill="#52657a">VARCHAR2(100)</text>
<circle cx="704.0" cy="517.5" r="2.5" fill="#245FA9"/><circle cx="964.0" cy="517.5" r="2.5" fill="#245FA9"/>
</g>
<g id="table-FILES">
<rect x="368.0" y="142.0" width="260.0" height="138.0" rx="7" fill="#ffffff" stroke="#17734D" stroke-width="1.4"/>
<path d="M 368.0 149.0 h 260.0 v 39.0 h -260.0 z" fill="#E6F5ED"/>
<text x="378.0" y="161.0" font-family="ui-monospace, monospace" font-size="13" font-weight="700" fill="#17734D">FILES</text>
<text x="378.0" y="178.0" font-family="system-ui, sans-serif" font-size="9.5" fill="#53657a">PK PK_FL · +13 folded</text>
<rect x="368.0" y="188.0" width="260.0" height="23.0" fill="#ffffff" stroke="#e5eaf0" stroke-width="0.6"/>
<text x="374.0" y="203.0" font-family="ui-monospace, monospace" font-size="7.5" font-weight="700" fill="#64748b">PK NN</text>
<text x="426.0" y="203.0" font-family="ui-monospace, monospace" font-size="9.0" font-weight="600" fill="#172b4d">FILE_ID</text>
<text x="622.0" y="203.0" text-anchor="end" font-family="ui-monospace, monospace" font-size="7.5" fill="#52657a">INTEGER</text>
<circle cx="368.0" cy="199.5" r="2.5" fill="#17734D"/><circle cx="628.0" cy="199.5" r="2.5" fill="#17734D"/>
<rect x="368.0" y="211.0" width="260.0" height="23.0" fill="#f8fafc" stroke="#e5eaf0" stroke-width="0.6"/>
<text x="374.0" y="226.0" font-family="ui-monospace, monospace" font-size="7.5" font-weight="700" fill="#64748b">UQ NN</text>
<text x="426.0" y="226.0" font-family="ui-monospace, monospace" font-size="9.0" font-weight="600" fill="#172b4d">LOGICAL_FILE_NAME</text>
<text x="622.0" y="226.0" text-anchor="end" font-family="ui-monospace, monospace" font-size="7.5" fill="#52657a">VARCHAR2(500)</text>
<circle cx="368.0" cy="222.5" r="2.5" fill="#17734D"/><circle cx="628.0" cy="222.5" r="2.5" fill="#17734D"/>
<rect x="368.0" y="234.0" width="260.0" height="23.0" fill="#ffffff" stroke="#e5eaf0" stroke-width="0.6"/>
<text x="374.0" y="249.0" font-family="ui-monospace, monospace" font-size="7.5" font-weight="700" fill="#64748b">FK NN</text>
<text x="426.0" y="249.0" font-family="ui-monospace, monospace" font-size="9.0" font-weight="600" fill="#172b4d">FILE_TYPE_ID</text>
<text x="622.0" y="249.0" text-anchor="end" font-family="ui-monospace, monospace" font-size="7.5" fill="#52657a">INTEGER</text>
<circle cx="368.0" cy="245.5" r="2.5" fill="#17734D"/><circle cx="628.0" cy="245.5" r="2.5" fill="#17734D"/>
<rect x="368.0" y="257.0" width="260.0" height="23.0" fill="#f8fafc" stroke="#e5eaf0" stroke-width="0.6"/>
<text x="374.0" y="272.0" font-family="ui-monospace, monospace" font-size="7.5" font-weight="700" fill="#64748b">FK</text>
<text x="426.0" y="272.0" font-family="ui-monospace, monospace" font-size="9.0" font-weight="600" fill="#172b4d">BRANCH_HASH_ID</text>
<text x="622.0" y="272.0" text-anchor="end" font-family="ui-monospace, monospace" font-size="7.5" fill="#52657a">INTEGER</text>
<circle cx="368.0" cy="268.5" r="2.5" fill="#17734D"/><circle cx="628.0" cy="268.5" r="2.5" fill="#17734D"/>
</g>
<g id="table-FILE_DATA_TYPES">
<rect x="704.0" y="543.0" width="260.0" height="92.0" rx="7" fill="#ffffff" stroke="#245FA9" stroke-width="1.4"/>
<path d="M 704.0 550.0 h 260.0 v 39.0 h -260.0 z" fill="#E9F2FC"/>
<text x="714.0" y="562.0" font-family="ui-monospace, monospace" font-size="13" font-weight="700" fill="#245FA9">FILE_DATA_TYPES</text>
<text x="714.0" y="579.0" font-family="system-ui, sans-serif" font-size="9.5" fill="#53657a">PK PK_FT</text>
<rect x="704.0" y="589.0" width="260.0" height="23.0" fill="#ffffff" stroke="#e5eaf0" stroke-width="0.6"/>
<text x="710.0" y="604.0" font-family="ui-monospace, monospace" font-size="7.5" font-weight="700" fill="#64748b">PK NN</text>
<text x="762.0" y="604.0" font-family="ui-monospace, monospace" font-size="9.0" font-weight="600" fill="#172b4d">FILE_TYPE_ID</text>
<text x="958.0" y="604.0" text-anchor="end" font-family="ui-monospace, monospace" font-size="7.5" fill="#52657a">INTEGER</text>
<circle cx="704.0" cy="600.5" r="2.5" fill="#245FA9"/><circle cx="964.0" cy="600.5" r="2.5" fill="#245FA9"/>
<rect x="704.0" y="612.0" width="260.0" height="23.0" fill="#f8fafc" stroke="#e5eaf0" stroke-width="0.6"/>
<text x="710.0" y="627.0" font-family="ui-monospace, monospace" font-size="7.5" font-weight="700" fill="#64748b">UQ NN</text>
<text x="762.0" y="627.0" font-family="ui-monospace, monospace" font-size="9.0" font-weight="600" fill="#172b4d">FILE_TYPE</text>
<text x="958.0" y="627.0" text-anchor="end" font-family="ui-monospace, monospace" font-size="7.5" fill="#52657a">VARCHAR2(100)</text>
<circle cx="704.0" cy="623.5" r="2.5" fill="#245FA9"/><circle cx="964.0" cy="623.5" r="2.5" fill="#245FA9"/>
</g>
<g id="table-PHYSICS_GROUPS">
<rect x="704.0" y="649.0" width="260.0" height="92.0" rx="7" fill="#ffffff" stroke="#245FA9" stroke-width="1.4"/>
<path d="M 704.0 656.0 h 260.0 v 39.0 h -260.0 z" fill="#E9F2FC"/>
<text x="714.0" y="668.0" font-family="ui-monospace, monospace" font-size="13" font-weight="700" fill="#245FA9">PHYSICS_GROUPS</text>
<text x="714.0" y="685.0" font-family="system-ui, sans-serif" font-size="9.5" fill="#53657a">PK PK_PG</text>
<rect x="704.0" y="695.0" width="260.0" height="23.0" fill="#ffffff" stroke="#e5eaf0" stroke-width="0.6"/>
<text x="710.0" y="710.0" font-family="ui-monospace, monospace" font-size="7.5" font-weight="700" fill="#64748b">PK NN</text>
<text x="762.0" y="710.0" font-family="ui-monospace, monospace" font-size="9.0" font-weight="600" fill="#172b4d">PHYSICS_GROUP_ID</text>
<text x="958.0" y="710.0" text-anchor="end" font-family="ui-monospace, monospace" font-size="7.5" fill="#52657a">INTEGER</text>
<circle cx="704.0" cy="706.5" r="2.5" fill="#245FA9"/><circle cx="964.0" cy="706.5" r="2.5" fill="#245FA9"/>
<rect x="704.0" y="718.0" width="260.0" height="23.0" fill="#f8fafc" stroke="#e5eaf0" stroke-width="0.6"/>
<text x="710.0" y="733.0" font-family="ui-monospace, monospace" font-size="7.5" font-weight="700" fill="#64748b">UQ NN</text>
<text x="762.0" y="733.0" font-family="ui-monospace, monospace" font-size="9.0" font-weight="600" fill="#172b4d">PHYSICS_GROUP_NAME</text>
<text x="958.0" y="733.0" text-anchor="end" font-family="ui-monospace, monospace" font-size="7.5" fill="#52657a">VARCHAR2(100)</text>
<circle cx="704.0" cy="729.5" r="2.5" fill="#245FA9"/><circle cx="964.0" cy="729.5" r="2.5" fill="#245FA9"/>
</g>
<g id="table-PRIMARY_DATASETS">
<rect x="368.0" y="294.0" width="260.0" height="115.0" rx="7" fill="#ffffff" stroke="#245FA9" stroke-width="1.4"/>
<path d="M 368.0 301.0 h 260.0 v 39.0 h -260.0 z" fill="#E9F2FC"/>
<text x="378.0" y="313.0" font-family="ui-monospace, monospace" font-size="13" font-weight="700" fill="#245FA9">PRIMARY_DATASETS</text>
<text x="378.0" y="330.0" font-family="system-ui, sans-serif" font-size="9.5" fill="#53657a">PK PK_PDS · +2 folded</text>
<rect x="368.0" y="340.0" width="260.0" height="23.0" fill="#ffffff" stroke="#e5eaf0" stroke-width="0.6"/>
<text x="374.0" y="355.0" font-family="ui-monospace, monospace" font-size="7.5" font-weight="700" fill="#64748b">PK NN</text>
<text x="426.0" y="355.0" font-family="ui-monospace, monospace" font-size="9.0" font-weight="600" fill="#172b4d">PRIMARY_DS_ID</text>
<text x="622.0" y="355.0" text-anchor="end" font-family="ui-monospace, monospace" font-size="7.5" fill="#52657a">INTEGER</text>
<circle cx="368.0" cy="351.5" r="2.5" fill="#245FA9"/><circle cx="628.0" cy="351.5" r="2.5" fill="#245FA9"/>
<rect x="368.0" y="363.0" width="260.0" height="23.0" fill="#f8fafc" stroke="#e5eaf0" stroke-width="0.6"/>
<text x="374.0" y="378.0" font-family="ui-monospace, monospace" font-size="7.5" font-weight="700" fill="#64748b">UQ NN</text>
<text x="426.0" y="378.0" font-family="ui-monospace, monospace" font-size="9.0" font-weight="600" fill="#172b4d">PRIMARY_DS_NAME</text>
<text x="622.0" y="378.0" text-anchor="end" font-family="ui-monospace, monospace" font-size="7.5" fill="#52657a">VARCHAR2(100)</text>
<circle cx="368.0" cy="374.5" r="2.5" fill="#245FA9"/><circle cx="628.0" cy="374.5" r="2.5" fill="#245FA9"/>
<rect x="368.0" y="386.0" width="260.0" height="23.0" fill="#ffffff" stroke="#e5eaf0" stroke-width="0.6"/>
<text x="374.0" y="401.0" font-family="ui-monospace, monospace" font-size="7.5" font-weight="700" fill="#64748b">FK NN</text>
<text x="426.0" y="401.0" font-family="ui-monospace, monospace" font-size="9.0" font-weight="600" fill="#172b4d">PRIMARY_DS_TYPE_ID</text>
<text x="622.0" y="401.0" text-anchor="end" font-family="ui-monospace, monospace" font-size="7.5" fill="#52657a">INTEGER</text>
<circle cx="368.0" cy="397.5" r="2.5" fill="#245FA9"/><circle cx="628.0" cy="397.5" r="2.5" fill="#245FA9"/>
</g>
<g id="table-PRIMARY_DS_TYPES">
<rect x="704.0" y="755.0" width="260.0" height="92.0" rx="7" fill="#ffffff" stroke="#245FA9" stroke-width="1.4"/>
<path d="M 704.0 762.0 h 260.0 v 39.0 h -260.0 z" fill="#E9F2FC"/>
<text x="714.0" y="774.0" font-family="ui-monospace, monospace" font-size="13" font-weight="700" fill="#245FA9">PRIMARY_DS_TYPES</text>
<text x="714.0" y="791.0" font-family="system-ui, sans-serif" font-size="9.5" fill="#53657a">PK PK_PDT</text>
<rect x="704.0" y="801.0" width="260.0" height="23.0" fill="#ffffff" stroke="#e5eaf0" stroke-width="0.6"/>
<text x="710.0" y="816.0" font-family="ui-monospace, monospace" font-size="7.5" font-weight="700" fill="#64748b">PK NN</text>
<text x="762.0" y="816.0" font-family="ui-monospace, monospace" font-size="9.0" font-weight="600" fill="#172b4d">PRIMARY_DS_TYPE_ID</text>
<text x="958.0" y="816.0" text-anchor="end" font-family="ui-monospace, monospace" font-size="7.5" fill="#52657a">INTEGER</text>
<circle cx="704.0" cy="812.5" r="2.5" fill="#245FA9"/><circle cx="964.0" cy="812.5" r="2.5" fill="#245FA9"/>
<rect x="704.0" y="824.0" width="260.0" height="23.0" fill="#f8fafc" stroke="#e5eaf0" stroke-width="0.6"/>
<text x="710.0" y="839.0" font-family="ui-monospace, monospace" font-size="7.5" font-weight="700" fill="#64748b">UQ NN</text>
<text x="762.0" y="839.0" font-family="ui-monospace, monospace" font-size="9.0" font-weight="600" fill="#172b4d">PRIMARY_DS_TYPE</text>
<text x="958.0" y="839.0" text-anchor="end" font-family="ui-monospace, monospace" font-size="7.5" fill="#52657a">VARCHAR2(100)</text>
<circle cx="704.0" cy="835.5" r="2.5" fill="#245FA9"/><circle cx="964.0" cy="835.5" r="2.5" fill="#245FA9"/>
</g>
<g id="table-PROCESSED_DATASETS">
<rect x="704.0" y="861.0" width="260.0" height="92.0" rx="7" fill="#ffffff" stroke="#245FA9" stroke-width="1.4"/>
<path d="M 704.0 868.0 h 260.0 v 39.0 h -260.0 z" fill="#E9F2FC"/>
<text x="714.0" y="880.0" font-family="ui-monospace, monospace" font-size="13" font-weight="700" fill="#245FA9">PROCESSED_DATASETS</text>
<text x="714.0" y="897.0" font-family="system-ui, sans-serif" font-size="9.5" fill="#53657a">PK PK_PSDS</text>
<rect x="704.0" y="907.0" width="260.0" height="23.0" fill="#ffffff" stroke="#e5eaf0" stroke-width="0.6"/>
<text x="710.0" y="922.0" font-family="ui-monospace, monospace" font-size="7.5" font-weight="700" fill="#64748b">PK NN</text>
<text x="762.0" y="922.0" font-family="ui-monospace, monospace" font-size="9.0" font-weight="600" fill="#172b4d">PROCESSED_DS_ID</text>
<text x="958.0" y="922.0" text-anchor="end" font-family="ui-monospace, monospace" font-size="7.5" fill="#52657a">INTEGER</text>
<circle cx="704.0" cy="918.5" r="2.5" fill="#245FA9"/><circle cx="964.0" cy="918.5" r="2.5" fill="#245FA9"/>
<rect x="704.0" y="930.0" width="260.0" height="23.0" fill="#f8fafc" stroke="#e5eaf0" stroke-width="0.6"/>
<text x="710.0" y="945.0" font-family="ui-monospace, monospace" font-size="7.5" font-weight="700" fill="#64748b">UQ NN</text>
<text x="762.0" y="945.0" font-family="ui-monospace, monospace" font-size="9.0" font-weight="600" fill="#172b4d">PROCESSED_DS_NAME</text>
<text x="958.0" y="945.0" text-anchor="end" font-family="ui-monospace, monospace" font-size="7.5" fill="#52657a">VARCHAR2(235)</text>
<circle cx="704.0" cy="941.5" r="2.5" fill="#245FA9"/><circle cx="964.0" cy="941.5" r="2.5" fill="#245FA9"/>
</g>
<g id="table-PROCESSING_ERAS">
<rect x="704.0" y="967.0" width="260.0" height="92.0" rx="7" fill="#ffffff" stroke="#245FA9" stroke-width="1.4"/>
<path d="M 704.0 974.0 h 260.0 v 39.0 h -260.0 z" fill="#E9F2FC"/>
<text x="714.0" y="986.0" font-family="ui-monospace, monospace" font-size="13" font-weight="700" fill="#245FA9">PROCESSING_ERAS</text>
<text x="714.0" y="1003.0" font-family="system-ui, sans-serif" font-size="9.5" fill="#53657a">PK PK_PE · +3 folded</text>
<rect x="704.0" y="1013.0" width="260.0" height="23.0" fill="#ffffff" stroke="#e5eaf0" stroke-width="0.6"/>
<text x="710.0" y="1028.0" font-family="ui-monospace, monospace" font-size="7.5" font-weight="700" fill="#64748b">PK NN</text>
<text x="762.0" y="1028.0" font-family="ui-monospace, monospace" font-size="9.0" font-weight="600" fill="#172b4d">PROCESSING_ERA_ID</text>
<text x="958.0" y="1028.0" text-anchor="end" font-family="ui-monospace, monospace" font-size="7.5" fill="#52657a">INTEGER</text>
<circle cx="704.0" cy="1024.5" r="2.5" fill="#245FA9"/><circle cx="964.0" cy="1024.5" r="2.5" fill="#245FA9"/>
<rect x="704.0" y="1036.0" width="260.0" height="23.0" fill="#f8fafc" stroke="#e5eaf0" stroke-width="0.6"/>
<text x="710.0" y="1051.0" font-family="ui-monospace, monospace" font-size="7.5" font-weight="700" fill="#64748b">UQ</text>
<text x="762.0" y="1051.0" font-family="ui-monospace, monospace" font-size="9.0" font-weight="600" fill="#172b4d">PROCESSING_VERSION</text>
<text x="958.0" y="1051.0" text-anchor="end" font-family="ui-monospace, monospace" font-size="7.5" fill="#52657a">INTEGER</text>
<circle cx="704.0" cy="1047.5" r="2.5" fill="#245FA9"/><circle cx="964.0" cy="1047.5" r="2.5" fill="#245FA9"/>
</g>
</svg>
