<svg xmlns="http://www.w3.org/2000/svg" viewBox="0 0 1014 757" width="1014" height="757" role="img" aria-labelledby="title desc">
<title id="title">DBS relational map — Parentage and associations</title>
<desc id="desc">DBS tables with exact foreign-key column connections, generated directly by the Go schema tool.</desc>
<defs><marker id="fk-arrow" markerWidth="8" markerHeight="8" refX="7" refY="4" orient="auto"><path d="M0,0 L8,4 L0,8 z" fill="#7047AA"/></marker></defs>
<rect width="100%" height="100%" fill="#f8fafc"/>
<text x="32" y="38" font-family="system-ui, sans-serif" font-size="22" font-weight="700" fill="#172b4d">Parentage and associations</text>
<text x="32" y="64" font-family="system-ui, sans-serif" font-size="12" fill="#52657a">Dataset, block, and file provenance links. Exact arrows run from FK source columns to referenced PK/UQ columns.</text>
<rect x="32" y="82" width="12" height="12" rx="2" fill="#E6F5ED" stroke="#17734D"/><text x="50" y="93" font-family="system-ui, sans-serif" font-size="10" fill="#334155">Core</text>
<rect x="160" y="82" width="12" height="12" rx="2" fill="#E9F2FC" stroke="#245FA9"/><text x="178" y="93" font-family="system-ui, sans-serif" font-size="10" fill="#334155">Lookup</text>
<rect x="288" y="82" width="12" height="12" rx="2" fill="#F3EAFF" stroke="#7047AA"/><text x="306" y="93" font-family="system-ui, sans-serif" font-size="10" fill="#334155">Parentage</text>
<rect x="416" y="82" width="12" height="12" rx="2" fill="#FFF0DF" stroke="#AC5516"/><text x="434" y="93" font-family="system-ui, sans-serif" font-size="10" fill="#334155">Config</text>
<rect x="544" y="82" width="12" height="12" rx="2" fill="#E8F4F5" stroke="#147887"/><text x="562" y="93" font-family="system-ui, sans-serif" font-size="10" fill="#334155">Operations</text>
<rect x="672" y="82" width="12" height="12" rx="2" fill="#F1F3F5" stroke="#596675"/><text x="690" y="93" font-family="system-ui, sans-serif" font-size="10" fill="#334155">Other</text>
<text x="32" y="112" font-family="ui-monospace, monospace" font-size="10" fill="#52657a">PK primary key · FK foreign key · UQ unique · NN not null · +N folded columns are in the dictionary</text>
<path d="M 402.0 227.5 H 493.0 V 482.5 H 612.0" fill="none" stroke="#7047AA" stroke-width="1.6" opacity="0.82" marker-end="url(#fk-arrow)"/>
<rect x="445.0" y="210.5" width="124.0" height="17" rx="3" fill="#ffffff" opacity="0.94"/><text x="507.0" y="222.5" text-anchor="middle" font-family="ui-monospace, monospace" font-size="9" font-weight="700" fill="#7047AA">FL_AF · CASCADE</text>
<path d="M 402.0 256.5 H 500.0 V 482.5 H 612.0" fill="none" stroke="#7047AA" stroke-width="1.6" opacity="0.82" marker-end="url(#fk-arrow)"/>
<rect x="445.0" y="239.5" width="124.0" height="17" rx="3" fill="#ffffff" opacity="0.94"/><text x="507.0" y="251.5" text-anchor="middle" font-family="ui-monospace, monospace" font-size="9" font-weight="700" fill="#7047AA">FL_AF2 · CASCADE</text>
<path d="M 402.0 369.5 H 493.0 V 198.5 H 612.0" fill="none" stroke="#7047AA" stroke-width="1.6" opacity="0.82" marker-end="url(#fk-arrow)"/>
<rect x="445.0" y="352.5" width="124.0" height="17" rx="3" fill="#ffffff" opacity="0.94"/><text x="507.0" y="364.5" text-anchor="middle" font-family="ui-monospace, monospace" font-size="9" font-weight="700" fill="#7047AA">BK_BP · CASCADE</text>
<path d="M 402.0 398.5 H 500.0 V 198.5 H 612.0" fill="none" stroke="#7047AA" stroke-width="1.6" opacity="0.82" marker-end="url(#fk-arrow)"/>
<rect x="445.0" y="381.5" width="124.0" height="17" rx="3" fill="#ffffff" opacity="0.94"/><text x="507.0" y="393.5" text-anchor="middle" font-family="ui-monospace, monospace" font-size="9" font-weight="700" fill="#7047AA">BK_BP2 · CASCADE</text>
<path d="M 402.0 511.5 H 493.0 V 340.5 H 612.0" fill="none" stroke="#7047AA" stroke-width="1.6" opacity="0.82" marker-end="url(#fk-arrow)"/>
<rect x="445.0" y="494.5" width="124.0" height="17" rx="3" fill="#ffffff" opacity="0.94"/><text x="507.0" y="506.5" text-anchor="middle" font-family="ui-monospace, monospace" font-size="9" font-weight="700" fill="#7047AA">DS_DP · CASCADE</text>
<path d="M 402.0 540.5 H 500.0 V 340.5 H 612.0" fill="none" stroke="#7047AA" stroke-width="1.6" opacity="0.82" marker-end="url(#fk-arrow)"/>
<rect x="445.0" y="523.5" width="124.0" height="17" rx="3" fill="#ffffff" opacity="0.94"/><text x="507.0" y="535.5" text-anchor="middle" font-family="ui-monospace, monospace" font-size="9" font-weight="700" fill="#7047AA">DS_DP2 · CASCADE</text>
<path d="M 402.0 653.5 H 493.0 V 482.5 H 612.0" fill="none" stroke="#7047AA" stroke-width="1.6" opacity="0.82" marker-end="url(#fk-arrow)"/>
<rect x="445.0" y="636.5" width="124.0" height="17" rx="3" fill="#ffffff" opacity="0.94"/><text x="507.0" y="648.5" text-anchor="middle" font-family="ui-monospace, monospace" font-size="9" font-weight="700" fill="#7047AA">FL_FP · CASCADE</text>
<path d="M 402.0 682.5 H 500.0 V 482.5 H 612.0" fill="none" stroke="#7047AA" stroke-width="1.6" opacity="0.82" marker-end="url(#fk-arrow)"/>
<rect x="445.0" y="665.5" width="124.0" height="17" rx="3" fill="#ffffff" opacity="0.94"/><text x="507.0" y="677.5" text-anchor="middle" font-family="ui-monospace, monospace" font-size="9" font-weight="700" fill="#7047AA">FL_FP2 · CASCADE</text>
<g id="table-ASSOCIATED_FILES">
<rect x="32.0" y="132.0" width="370.0" height="139.0" rx="7" fill="#ffffff" stroke="#7047AA" stroke-width="1.4"/>
<path d="M 32.0 139.0 h 370.0 v 45.0 h -370.0 z" fill="#F3EAFF"/>
<text x="42.0" y="151.0" font-family="ui-monospace, monospace" font-size="13" font-weight="700" fill="#7047AA">ASSOCIATED_FILES</text>
<text x="42.0" y="168.0" font-family="system-ui, sans-serif" font-size="9.5" fill="#53657a">PK PK_AF</text>
<rect x="32.0" y="184.0" width="370.0" height="29.0" fill="#ffffff" stroke="#e5eaf0" stroke-width="0.6"/>
<text x="40.0" y="200.0" font-family="ui-monospace, monospace" font-size="9" font-weight="700" fill="#64748b">PK NN</text>
<text x="102.0" y="200.0" font-family="ui-monospace, monospace" font-size="10.5" font-weight="600" fill="#172b4d">ASSOCATED_FILE_ID</text>
<text x="394.0" y="200.0" text-anchor="end" font-family="ui-monospace, monospace" font-size="9" fill="#52657a">INTEGER</text>
<circle cx="32.0" cy="198.5" r="2.5" fill="#7047AA"/><circle cx="402.0" cy="198.5" r="2.5" fill="#7047AA"/>
<rect x="32.0" y="213.0" width="370.0" height="29.0" fill="#f8fafc" stroke="#e5eaf0" stroke-width="0.6"/>
<text x="40.0" y="229.0" font-family="ui-monospace, monospace" font-size="9" font-weight="700" fill="#64748b">FK UQ NN</text>
<text x="102.0" y="229.0" font-family="ui-monospace, monospace" font-size="10.5" font-weight="600" fill="#172b4d">THIS_FILE_ID</text>
<text x="394.0" y="229.0" text-anchor="end" font-family="ui-monospace, monospace" font-size="9" fill="#52657a">INTEGER</text>
<circle cx="32.0" cy="227.5" r="2.5" fill="#7047AA"/><circle cx="402.0" cy="227.5" r="2.5" fill="#7047AA"/>
<rect x="32.0" y="242.0" width="370.0" height="29.0" fill="#ffffff" stroke="#e5eaf0" stroke-width="0.6"/>
<text x="40.0" y="258.0" font-family="ui-monospace, monospace" font-size="9" font-weight="700" fill="#64748b">FK UQ NN</text>
<text x="102.0" y="258.0" font-family="ui-monospace, monospace" font-size="10.5" font-weight="600" fill="#172b4d">ASSOCATED_FILE</text>
<text x="394.0" y="258.0" text-anchor="end" font-family="ui-monospace, monospace" font-size="9" fill="#52657a">INTEGER</text>
<circle cx="32.0" cy="256.5" r="2.5" fill="#7047AA"/><circle cx="402.0" cy="256.5" r="2.5" fill="#7047AA"/>
</g>
<g id="table-BLOCKS">
<rect x="612.0" y="132.0" width="370.0" height="110.0" rx="7" fill="#ffffff" stroke="#17734D" stroke-width="1.4"/>
<path d="M 612.0 139.0 h 370.0 v 45.0 h -370.0 z" fill="#E6F5ED"/>
<text x="622.0" y="151.0" font-family="ui-monospace, monospace" font-size="13" font-weight="700" fill="#17734D">BLOCKS</text>
<text x="622.0" y="168.0" font-family="system-ui, sans-serif" font-size="9.5" fill="#53657a">PK PK_BK · +9 folded</text>
<rect x="612.0" y="184.0" width="370.0" height="29.0" fill="#ffffff" stroke="#e5eaf0" stroke-width="0.6"/>
<text x="620.0" y="200.0" font-family="ui-monospace, monospace" font-size="9" font-weight="700" fill="#64748b">PK NN</text>
<text x="682.0" y="200.0" font-family="ui-monospace, monospace" font-size="10.5" font-weight="600" fill="#172b4d">BLOCK_ID</text>
<text x="974.0" y="200.0" text-anchor="end" font-family="ui-monospace, monospace" font-size="9" fill="#52657a">INTEGER</text>
<circle cx="612.0" cy="198.5" r="2.5" fill="#17734D"/><circle cx="982.0" cy="198.5" r="2.5" fill="#17734D"/>
<rect x="612.0" y="213.0" width="370.0" height="29.0" fill="#f8fafc" stroke="#e5eaf0" stroke-width="0.6"/>
<text x="620.0" y="229.0" font-family="ui-monospace, monospace" font-size="9" font-weight="700" fill="#64748b">UQ NN</text>
<text x="682.0" y="229.0" font-family="ui-monospace, monospace" font-size="10.5" font-weight="600" fill="#172b4d">BLOCK_NAME</text>
<text x="974.0" y="229.0" text-anchor="end" font-family="ui-monospace, monospace" font-size="9" fill="#52657a">VARCHAR2(500)</text>
<circle cx="612.0" cy="227.5" r="2.5" fill="#17734D"/><circle cx="982.0" cy="227.5" r="2.5" fill="#17734D"/>
</g>
<g id="table-BLOCK_PARENTS">
<rect x="32.0" y="303.0" width="370.0" height="110.0" rx="7" fill="#ffffff" stroke="#7047AA" stroke-width="1.4"/>
<path d="M 32.0 310.0 h 370.0 v 45.0 h -370.0 z" fill="#F3EAFF"/>
<text x="42.0" y="322.0" font-family="ui-monospace, monospace" font-size="13" font-weight="700" fill="#7047AA">BLOCK_PARENTS</text>
<text x="42.0" y="339.0" font-family="system-ui, sans-serif" font-size="9.5" fill="#53657a">PK PK_BP</text>
<rect x="32.0" y="355.0" width="370.0" height="29.0" fill="#ffffff" stroke="#e5eaf0" stroke-width="0.6"/>
<text x="40.0" y="371.0" font-family="ui-monospace, monospace" font-size="9" font-weight="700" fill="#64748b">PK FK NN</text>
<text x="102.0" y="371.0" font-family="ui-monospace, monospace" font-size="10.5" font-weight="600" fill="#172b4d">THIS_BLOCK_ID</text>
<text x="394.0" y="371.0" text-anchor="end" font-family="ui-monospace, monospace" font-size="9" fill="#52657a">INTEGER</text>
<circle cx="32.0" cy="369.5" r="2.5" fill="#7047AA"/><circle cx="402.0" cy="369.5" r="2.5" fill="#7047AA"/>
<rect x="32.0" y="384.0" width="370.0" height="29.0" fill="#f8fafc" stroke="#e5eaf0" stroke-width="0.6"/>
<text x="40.0" y="400.0" font-family="ui-monospace, monospace" font-size="9" font-weight="700" fill="#64748b">PK FK NN</text>
<text x="102.0" y="400.0" font-family="ui-monospace, monospace" font-size="10.5" font-weight="600" fill="#172b4d">PARENT_BLOCK_ID</text>
<text x="394.0" y="400.0" text-anchor="end" font-family="ui-monospace, monospace" font-size="9" fill="#52657a">INTEGER</text>
<circle cx="32.0" cy="398.5" r="2.5" fill="#7047AA"/><circle cx="402.0" cy="398.5" r="2.5" fill="#7047AA"/>
</g>
<g id="table-DATASETS">
<rect x="612.0" y="274.0" width="370.0" height="110.0" rx="7" fill="#ffffff" stroke="#17734D" stroke-width="1.4"/>
<path d="M 612.0 281.0 h 370.0 v 45.0 h -370.0 z" fill="#E6F5ED"/>
<text x="622.0" y="293.0" font-family="ui-monospace, monospace" font-size="13" font-weight="700" fill="#17734D">DATASETS</text>
<text x="622.0" y="310.0" font-family="system-ui, sans-serif" font-size="9.5" fill="#53657a">PK PK_DS · +14 folded</text>
<rect x="612.0" y="326.0" width="370.0" height="29.0" fill="#ffffff" stroke="#e5eaf0" stroke-width="0.6"/>
<text x="620.0" y="342.0" font-family="ui-monospace, monospace" font-size="9" font-weight="700" fill="#64748b">PK NN</text>
<text x="682.0" y="342.0" font-family="ui-monospace, monospace" font-size="10.5" font-weight="600" fill="#172b4d">DATASET_ID</text>
<text x="974.0" y="342.0" text-anchor="end" font-family="ui-monospace, monospace" font-size="9" fill="#52657a">INTEGER</text>
<circle cx="612.0" cy="340.5" r="2.5" fill="#17734D"/><circle cx="982.0" cy="340.5" r="2.5" fill="#17734D"/>
<rect x="612.0" y="355.0" width="370.0" height="29.0" fill="#f8fafc" stroke="#e5eaf0" stroke-width="0.6"/>
<text x="620.0" y="371.0" font-family="ui-monospace, monospace" font-size="9" font-weight="700" fill="#64748b">UQ NN</text>
<text x="682.0" y="371.0" font-family="ui-monospace, monospace" font-size="10.5" font-weight="600" fill="#172b4d">DATASET</text>
<text x="974.0" y="371.0" text-anchor="end" font-family="ui-monospace, monospace" font-size="9" fill="#52657a">VARCHAR2(700)</text>
<circle cx="612.0" cy="369.5" r="2.5" fill="#17734D"/><circle cx="982.0" cy="369.5" r="2.5" fill="#17734D"/>
</g>
<g id="table-DATASET_PARENTS">
<rect x="32.0" y="445.0" width="370.0" height="110.0" rx="7" fill="#ffffff" stroke="#7047AA" stroke-width="1.4"/>
<path d="M 32.0 452.0 h 370.0 v 45.0 h -370.0 z" fill="#F3EAFF"/>
<text x="42.0" y="464.0" font-family="ui-monospace, monospace" font-size="13" font-weight="700" fill="#7047AA">DATASET_PARENTS</text>
<text x="42.0" y="481.0" font-family="system-ui, sans-serif" font-size="9.5" fill="#53657a">PK PK_DP</text>
<rect x="32.0" y="497.0" width="370.0" height="29.0" fill="#ffffff" stroke="#e5eaf0" stroke-width="0.6"/>
<text x="40.0" y="513.0" font-family="ui-monospace, monospace" font-size="9" font-weight="700" fill="#64748b">PK FK NN</text>
<text x="102.0" y="513.0" font-family="ui-monospace, monospace" font-size="10.5" font-weight="600" fill="#172b4d">THIS_DATASET_ID</text>
<text x="394.0" y="513.0" text-anchor="end" font-family="ui-monospace, monospace" font-size="9" fill="#52657a">INTEGER</text>
<circle cx="32.0" cy="511.5" r="2.5" fill="#7047AA"/><circle cx="402.0" cy="511.5" r="2.5" fill="#7047AA"/>
<rect x="32.0" y="526.0" width="370.0" height="29.0" fill="#f8fafc" stroke="#e5eaf0" stroke-width="0.6"/>
<text x="40.0" y="542.0" font-family="ui-monospace, monospace" font-size="9" font-weight="700" fill="#64748b">PK FK NN</text>
<text x="102.0" y="542.0" font-family="ui-monospace, monospace" font-size="10.5" font-weight="600" fill="#172b4d">PARENT_DATASET_ID</text>
<text x="394.0" y="542.0" text-anchor="end" font-family="ui-monospace, monospace" font-size="9" fill="#52657a">INTEGER</text>
<circle cx="32.0" cy="540.5" r="2.5" fill="#7047AA"/><circle cx="402.0" cy="540.5" r="2.5" fill="#7047AA"/>
</g>
<g id="table-FILES">
<rect x="612.0" y="416.0" width="370.0" height="110.0" rx="7" fill="#ffffff" stroke="#17734D" stroke-width="1.4"/>
<path d="M 612.0 423.0 h 370.0 v 45.0 h -370.0 z" fill="#E6F5ED"/>
<text x="622.0" y="435.0" font-family="ui-monospace, monospace" font-size="13" font-weight="700" fill="#17734D">FILES</text>
<text x="622.0" y="452.0" font-family="system-ui, sans-serif" font-size="9.5" fill="#53657a">PK PK_FL · +15 folded</text>
<rect x="612.0" y="468.0" width="370.0" height="29.0" fill="#ffffff" stroke="#e5eaf0" stroke-width="0.6"/>
<text x="620.0" y="484.0" font-family="ui-monospace, monospace" font-size="9" font-weight="700" fill="#64748b">PK NN</text>
<text x="682.0" y="484.0" font-family="ui-monospace, monospace" font-size="10.5" font-weight="600" fill="#172b4d">FILE_ID</text>
<text x="974.0" y="484.0" text-anchor="end" font-family="ui-monospace, monospace" font-size="9" fill="#52657a">INTEGER</text>
<circle cx="612.0" cy="482.5" r="2.5" fill="#17734D"/><circle cx="982.0" cy="482.5" r="2.5" fill="#17734D"/>
<rect x="612.0" y="497.0" width="370.0" height="29.0" fill="#f8fafc" stroke="#e5eaf0" stroke-width="0.6"/>
<text x="620.0" y="513.0" font-family="ui-monospace, monospace" font-size="9" font-weight="700" fill="#64748b">UQ NN</text>
<text x="682.0" y="513.0" font-family="ui-monospace, monospace" font-size="10.5" font-weight="600" fill="#172b4d">LOGICAL_FILE_NAME</text>
<text x="974.0" y="513.0" text-anchor="end" font-family="ui-monospace, monospace" font-size="9" fill="#52657a">VARCHAR2(500)</text>
<circle cx="612.0" cy="511.5" r="2.5" fill="#17734D"/><circle cx="982.0" cy="511.5" r="2.5" fill="#17734D"/>
</g>
<g id="table-FILE_PARENTS">
<rect x="32.0" y="587.0" width="370.0" height="110.0" rx="7" fill="#ffffff" stroke="#7047AA" stroke-width="1.4"/>
<path d="M 32.0 594.0 h 370.0 v 45.0 h -370.0 z" fill="#F3EAFF"/>
<text x="42.0" y="606.0" font-family="ui-monospace, monospace" font-size="13" font-weight="700" fill="#7047AA">FILE_PARENTS</text>
<text x="42.0" y="623.0" font-family="system-ui, sans-serif" font-size="9.5" fill="#53657a">PK PK_FP</text>
<rect x="32.0" y="639.0" width="370.0" height="29.0" fill="#ffffff" stroke="#e5eaf0" stroke-width="0.6"/>
<text x="40.0" y="655.0" font-family="ui-monospace, monospace" font-size="9" font-weight="700" fill="#64748b">PK FK NN</text>
<text x="102.0" y="655.0" font-family="ui-monospace, monospace" font-size="10.5" font-weight="600" fill="#172b4d">THIS_FILE_ID</text>
<text x="394.0" y="655.0" text-anchor="end" font-family="ui-monospace, monospace" font-size="9" fill="#52657a">INTEGER</text>
<circle cx="32.0" cy="653.5" r="2.5" fill="#7047AA"/><circle cx="402.0" cy="653.5" r="2.5" fill="#7047AA"/>
<rect x="32.0" y="668.0" width="370.0" height="29.0" fill="#f8fafc" stroke="#e5eaf0" stroke-width="0.6"/>
<text x="40.0" y="684.0" font-family="ui-monospace, monospace" font-size="9" font-weight="700" fill="#64748b">PK FK NN</text>
<text x="102.0" y="684.0" font-family="ui-monospace, monospace" font-size="10.5" font-weight="600" fill="#172b4d">PARENT_FILE_ID</text>
<text x="394.0" y="684.0" text-anchor="end" font-family="ui-monospace, monospace" font-size="9" fill="#52657a">INTEGER</text>
<circle cx="32.0" cy="682.5" r="2.5" fill="#7047AA"/><circle cx="402.0" cy="682.5" r="2.5" fill="#7047AA"/>
</g>
</svg>
